<svg xmlns="http://www.w3.org/2000/svg" width="1024" height="1536"><path d="M0 0h1024v1536H0z" fill="#FEFEFE"/><path d="m685 483 3.14 1.977c16.073 10.442 31.109 22.488 45.137 35.523a160 160 0 0 0 6.535 5.688c3.136 2.643 5.726 5.627 8.375 8.75 1.833 2.084 3.758 4.006 5.75 5.937 4.446 4.403 8.261 9.163 12.063 14.125l1.344 1.735C801.548 600.952 823.538 651.943 833 707l.505 2.866C838.99 742.55 838.269 778.503 832 811l-.666 3.49c-11.735 59.846-39.063 115.383-80.361 160.354-1.847 2.018-3.632 4.077-5.41 6.156-6.622 7.587-13.894 14.49-21.563 21l-2.754 2.418c-57.592 50.23-134.072 76.883-210.121 76.77l-2.472-.003c-78.712-.196-157.288-29.638-214.981-83.697a211 211 0 0 0-6.797-6.05c-7.642-6.661-14.427-13.891-20.742-21.813-1.886-2.321-3.843-4.503-5.883-6.687-48.291-53.945-74.44-132.314-74.5-203.875l-.002-2.209C185.841 692.93 204.483 626.318 242 574l1.511-2.12c7.683-10.738 15.675-21.049 24.489-30.88l1.427-1.614c11.804-13.33 24.724-25.403 38.933-36.132a227 227 0 0 0 4.663-3.695C359.08 462.678 419.5 440.613 478 436l3.272-.263C552.373 430.472 624.228 444.605 685 483" fill="#FEFEFE"/><path d="M470.748 525.296c15.424 12.463 25.844 29.693 28.08 49.602.294 3.598.319 7.181.297 10.79l-.006 2.35c-.05 6.688-.46 13.305-1.119 19.962h9q.141 11.605.207 23.21c.021 3.593.05 7.185.095 10.778q.063 5.203.078 10.407c.01 1.963.042 3.927.073 5.89l.001 3.64.027 3.196c-.6 3.595-2.062 5.211-4.481 7.879-2.45 4.318-2.272 8.3-1 13 2.355 4.457 4.515 6.767 9 9 5.525.825 10.462.702 15.562-1.625 3.974-3.872 5.585-7.307 5.875-12.813-.15-4.942-1.877-9.002-5.437-12.562a104 104 0 0 1-.114-5.53v-3.579l.016-3.895.005-3.964q.006-5.226.024-10.45.014-5.33.02-10.658c.01-6.975.029-13.95.049-20.924h21c4.5 24.286 8.636 48.626 12.625 73 .115.705.23 1.41.35 2.136q2.185 13.355 4.351 26.714.878 5.406 1.76 10.812l1.412 8.693.673 4.136q.464 2.846.924 5.693l.531 3.267C571 746 571 746 571 748c-5.022-.504-9.98-1.139-14.957-1.973-79.808-12.979-162.323 15.471-227.18 61.598-8.384 6.05-16.35 12.265-23.863 19.375a507 507 0 0 1-3.813 3.312c-10.94 9.573-21 19.53-30.613 30.442l-2.199 2.496-1.914 2.203L265 867h-1c-.749-37.768 5.223-73.784 11.487-110.952q1.03-6.125 2.048-12.251 1.005-6.044 2.017-12.087a6463 6463 0 0 0 4.667-28.3c8.962-54.986 8.962-54.986 12.906-76.91l.437-2.438c2.244-12.481 2.244-12.481 3.438-16.062h22c.09 7.997.164 15.995.207 23.992.021 3.714.05 7.428.095 11.142q.063 5.377.078 10.756.01 2.05.043 4.1c.03 1.916.03 3.834.031 5.751l.027 3.304c-.593 3.644-2.026 5.26-4.481 7.955-1.857 3.715-1.443 7.946-1 12 2.33 4.838 5.201 7.6 10 10 5.856.65 9.755-.075 15-3 4.124-4.341 5.348-7.853 5.293-13.867-.615-4.477-3.134-7.974-6.293-11.133-.24-2.556-.24-2.556-.227-5.827v-3.7l.032-4.012.008-4.094c.008-3.594.028-7.188.05-10.782.02-3.666.03-7.333.04-11 .02-7.194.056-14.39.097-21.585h13l-.105-5.203c-.348-24.336.4-46.959 16.105-66.797l2.187-3.063c23.327-26.734 69.838-28.194 97.561-7.641" fill="#010101"/><path d="m685 483 3.14 1.977c16.073 10.442 31.109 22.488 45.137 35.523a160 160 0 0 0 6.535 5.688c3.136 2.643 5.726 5.627 8.375 8.75 1.833 2.084 3.758 4.006 5.75 5.937 4.446 4.403 8.261 9.163 12.063 14.125l1.344 1.735C801.548 600.952 823.538 651.943 833 707l.505 2.866C838.99 742.55 838.269 778.503 832 811l-.666 3.49c-11.735 59.846-39.063 115.383-80.361 160.354-1.847 2.018-3.632 4.077-5.41 6.156-6.622 7.587-13.894 14.49-21.563 21l-2.754 2.418c-57.592 50.23-134.072 76.883-210.121 76.77l-2.472-.003c-78.712-.196-157.288-29.638-214.981-83.697a211 211 0 0 0-6.797-6.05c-7.642-6.661-14.427-13.891-20.742-21.813-1.886-2.321-3.843-4.503-5.883-6.687-48.291-53.945-74.44-132.314-74.5-203.875l-.002-2.209C185.841 692.93 204.483 626.318 242 574l1.511-2.12c7.683-10.738 15.675-21.049 24.489-30.88l1.427-1.614c11.804-13.33 24.724-25.403 38.933-36.132a227 227 0 0 0 4.663-3.695C359.08 462.678 419.5 440.613 478 436l3.272-.263C552.373 430.472 624.228 444.605 685 483m-388.316 42.5a235 235 0 0 1-6.997 6.25C267.16 551.346 249.442 577.08 235 603l-1.237 2.2C202.275 661.603 188.642 728.853 197 793l.276 2.333C201.822 833.46 214.06 870.15 232 904l1.16 2.19c12.126 22.729 27.04 43.282 44.496 62.247a291 291 0 0 1 5.969 6.75c20.056 23.015 46.342 41.86 72.96 56.486a568 568 0 0 1 4.837 2.689c26.203 14.703 54.678 24.652 84.015 30.888l3.313.71c19.919 4.02 39.705 5.57 60 5.415l3.297-.014c59.94-.3 119.67-16.008 169.953-49.361l2.038-1.33c14.295-9.358 27.41-20.093 39.962-31.67l2.852-2.54c11.07-9.885 21.038-20.74 30.148-32.46l1.652-2.12c33.297-42.973 55.764-92.072 64.828-145.823.325-1.908.662-3.814 1.02-5.715 2.682-14.276 2.786-28.552 2.813-43.03l.01-2.886c.038-18.478-1.387-36.48-5.01-54.614l-.39-1.971C812.252 649.09 791.756 603.11 761 564l-2.367-3.016c-13.949-17.373-29.86-34.5-47.633-47.984l-2.918-2.328C660.536 472.885 603.133 451.244 543 445l-2.124-.223c-88.033-8.651-179.41 20.028-244.192 80.723" fill="#040404"/><path d="M535 756c3.326 2.878 5.57 6.561 8 10.188l1.328 1.923c2.24 3.335 3.871 6.28 5.02 10.139 1.215 3.486 1.624 3.732 5.023 5.895q2.02.862 4.067 1.668c15.16 6.79 25.662 18.983 32.457 34.093 3.04 8.51 4.64 16.292 4.543 25.344l-.023 3.03c-.398 18.007-6.734 31.996-19.415 44.72l-1.898 1.969c-11.16 10.735-25.673 13.494-40.571 13.538-13.757-.384-26.254-5.361-36.531-14.507l-2.605-2.242c-11.754-10.847-19.634-26.567-20.563-42.668-.077-12.452 1.704-22.84 7.168-34.09l1.203-2.52c4.08-7.606 11.932-17.547 19.797-21.48.468-1.787.468-1.787.75-3.937 2.771-13.014 13.091-21.875 23.457-29.387 3.274-1.965 5.038-2.26 8.793-1.676" fill="#060606"/><path d="M468.313 531.875C480.652 542.384 488.237 555.949 491 572l.559 3.152c.57 4.965.586 9.855.566 14.848l.012 2.906c-.02 13.976-.02 13.976-2.137 16.094a83 83 0 0 1-4.942.12l-3.242.004-3.588-.01h-3.754q-5.11-.001-10.22-.013-5.336-.007-10.67-.008-10.11-.005-20.22-.021-11.506-.015-23.013-.022-23.675-.016-47.351-.05-.149-7.706-.22-15.411a599 599 0 0 0-.082-5.222c-.385-19.667 2.993-37.422 16.996-52.204 23.522-23.739 62.573-24.233 88.618-4.288" fill="#FCFCFC"/><path d="M603 786h21l20 79c1.819-3.638 2.968-6.917 4.123-10.8l.612-2.047q.996-3.34 1.984-6.68l1.39-4.656q1.826-6.124 3.647-12.25 2.912-9.8 5.836-19.596 1.019-3.416 2.03-6.835l1.255-4.206 1.099-3.698c.883-2.787 1.938-5.518 3.024-8.232h15c5.054 15.456 9.438 31.074 13.75 46.75l2.035 7.367q1.43 5.172 2.855 10.344A1360 1360 0 0 0 707 866c2.63-7.45 4.651-15.024 6.62-22.669a3399 3399 0 0 1 1.766-6.821q1.556-5.998 3.106-11.997 2.49-9.638 4.99-19.273.871-3.362 1.737-6.724l1.063-4.098.935-3.619C728 788 728 788 729 786h20c-1.579 8.561-3.777 16.914-6.07 25.305l-1.212 4.464q-1.27 4.678-2.547 9.355-1.598 5.856-3.187 11.717c-4.102 15.119-8.248 30.225-12.539 45.292l-1.015 3.574-.93 3.243-.809 2.826C720 894 720 894 719 896h-22l-1.605-5.625a113702 113702 0 0 0-8.478-29.704l-4.266-14.946c-2.165-7.591-4.354-15.173-6.651-22.725-1.364 2.591-2.409 5.064-3.202 7.881l-.65 2.286-.687 2.462-.734 2.59q-.778 2.747-1.551 5.496c-1.34 4.763-2.692 9.522-4.043 14.281l-.81 2.858C660.985 872.6 657.506 884.304 654 896h-21c-5.727-19.336-11.096-38.757-16.39-58.214a12114 12114 0 0 0-3.594-13.172q-1.404-5.137-2.803-10.277-.662-2.43-1.326-4.859-.925-3.384-1.843-6.769l-.54-1.97c-1.325-4.895-2.4-9.773-3.504-14.739" fill="#020202"/><path d="M485.293 508.676c3.025 2.66 5.878 5.457 8.707 8.324l2.02 2.023c23.911 25.585 26.065 62.433 26.149 95.559.01 3.103.035 6.206.06 9.31.045 5.74.083 11.48.097 17.22.01 4.031.04 8.062.081 12.093q.02 2.287.015 4.576c-.002 2.124.02 4.247.048 6.372l.018 3.651c.61 3.805 1.973 5.368 4.512 8.196 1.176 3.683 1.186 5.452-.062 9.125-2.33 3.457-4.177 5.067-7.938 6.875-4.596.08-6.39-.469-9.875-3.5L507 686l-1-1c-.273-1.855-.273-1.855-.375-4.187l-.148-2.293c.523-2.52.523-2.52 3.02-4.773 4.302-5.054 3.154-11.961 3.062-18.224q-.007-2.172-.007-4.346a945 945 0 0 0-.065-9.144c-.044-3.817-.06-7.632-.064-11.449.746-57.183.746-57.183-25.485-106.209-17.367-16.653-39.74-24-63.579-23.59-23.18.84-45.057 10.776-61.359 27.215-13.54 15.374-22.115 36.036-22.177 56.5l-.02 2.88q-.028 4.702-.041 9.405l-.013 3.247q-.03 8.498-.044 16.996c-.011 5.856-.046 11.713-.085 17.57-.026 4.5-.035 9.002-.038 13.503q-.008 3.24-.035 6.48a874 874 0 0 0-.017 9.048l-.039 2.71c-.033 4.934-.033 4.934 2.48 9.032L343 677c1.065 3.905 1.44 6.03-.25 9.75L341 689l-1.187 1.75c-2.991 2.063-6.268 2.368-9.813 2.25-3.666-1.548-6.173-3.442-8-7-.605-5.443-.605-5.443 0-8l2-2.124c2.558-3.678 2.554-6.67 2.498-10.989l.017-2.437q.015-2.617.001-5.233a775 775 0 0 1 .016-8.35c.033-5.934.032-11.87.03-17.804.003-7.76.02-15.519.067-23.278l.017-2.826c.256-34.034 6.188-62.92 30.229-88.209 33.85-32.161 91.16-39.347 128.418-8.074" fill="#060606"/><path d="M553 801c9.506 2.502 17.932 8.315 24 16 1.725 3.478 2.795 7.011 3.813 10.75l.863 2.97q.83 2.877 1.624 5.765a160 160 0 0 0 1.802 5.949c3.104 10.228 4.455 23.86-.54 33.629-9.055 13.744-9.055 13.744-14.835 15.71L568 892l-.586-1.863-.789-2.45-.773-2.425c-.84-2.49-.84-2.49-2.852-5.262l8-1v-3l-5-1 1-4h5l-5-2 1-2.375c1.119-2.468 1.119-2.468 1-4.625 1.5-1.625 1.5-1.625 3-3h-2v-3l-1-3c.67-6.083 2.508-11.98 4.414-17.773.756-2.488.756-2.488.586-6.227l-.84 3.176-1.097 4.136-.553 2.092c-.77 2.895-1.563 5.754-2.51 8.596h-3c1.23-9.6 3.355-18.716 6-28-3.64 8.687-6.407 17.086-8.062 26.375-1.52 8.444-3.905 15.076-8.688 22.25-1.799 3.418-1.925 6.538-2.25 10.375 1.49-1.49 1.44-3.066 1.813-5.125.966-4.61 2.662-7.92 5.187-11.875h1c.768 16.378.768 16.378-4 23-1.941.84-1.941.84-4 1-5.492-3.985-5.492-3.985-7-7-2.113-.42-2.113-.42-4.672-.527l-2.937-.208-3.141-.202c-8.693-.644-16.85-1.645-25.25-4.063l-1 7-3-2 .402-1.758.536-2.367.527-2.32L508 869c.23-.96.461-1.918.7-2.906.367-3.781-.45-5.937-1.825-9.469-3.88-10.547-5.749-21.62-7.875-32.625 1.265 13.111 1.265 13.111 3.633 26.055C503 852 503 852 503 856c-3.146.262-4.618.248-7.312-1.5L494 853l5 7-1 2-3-1 1.496.848c3.684 2.305 5.27 3.334 6.504 7.652 0 3.5 0 3.5-.687 6.188L502 878l1.938 1.625c3.364 3.874 2.368 8.452 2.062 13.375-3 0-3 0-6-2 .557-3.344 1.352-6.033 3-9-2.784 1.392-2.979 3.156-4 6-5.857-2.523-9.295-7.635-12.937-12.687C484.33 869.91 484.766 864.62 485 859l-.012-3.102c.21-8.712 2.995-15.78 6.313-23.703 1.374-3.292 2.407-6.538 3.262-10.008 1.33-4.751 3.339-6.482 7.437-9.187l2.625-1.937L507 810c3.953 1.571 7.316 4.233 10.781 6.66 2.121 1.281 3.8 1.895 6.219 2.34v2h2l-4 17-2-2 1 3 1 3c1.667-4.745 2.965-9.548 4.219-14.414.717-2.376 1.597-4.412 2.781-6.586 4.875 1.75 4.875 1.75 6 4 .086 2.178.107 4.36.098 6.54l-.01 3.944-.025 4.141q-.009 2.082-.014 4.164A3988 3988 0 0 1 535 854h2l-1-31 11-6c3.378-5.109 4.725-10.05 6-16" fill="#FBFBFB"/><path d="M401 787h19v92h49v18h-68z"/><path d="M529.875 759.375c3.997.8 6.336 2.784 9.125 5.625 6.475 9.79 12.936 24.988 10.602 36.91L549 804l-.727 2.621c-1.447 4.336-2.726 7.547-6.71 10.004-3.221 1.243-5.177 1.785-8.563 1.375l-1-2 10-4q.079-3.343.125-6.687l.07-3.762c-.188-3.43-.52-5.574-2.195-8.551-2.439-1.818-5.193-2.848-8-4l-2.937-1.312c-5.8-1.303-10.954-.567-16.125 2.375L510 792c.849 7.275 2.37 12.15 8 17a121 121 0 0 0 9 6c-2.527.953-3.599 1.177-6.113.066-5.852-4.001-11.65-8.594-14.887-15.066-.455-8.487.627-16.595 5-24 1.945-1.973 3.841-3.773 5.938-5.562 2.992-2.596 5.803-5.108 8.261-8.239C527 760 527 760 529.875 759.375" fill="#F9F9F9"/><path d="m511 876 2.973.402q2.044.27 4.09.535l2.17.286c6.19.78 12.322 1.09 18.56 1.238 4.478.753 6.81 2.795 9.605 6.285 1.697 2.939 2.643 4.77 2.352 8.192L550 895h2c-1.778 3.556-4.149 5.613-7.75 7.25L542 903v1c-11.022.686-22.546-1.068-32-7-1.105-3.316-1.168-5.885-1.187-9.375l-.043-3.398c.226-3.176.876-5.37 2.23-8.227" fill="#FAFAFA"/><path d="M515 937h7l1 21 5.625-6 1.83-1.948c2.91-3.142 5.467-6.255 7.795-9.865 1.583-2.26 2.166-3.055 4.883-3.667 2.242-.02 2.242-.02 5.867.48a323 323 0 0 1-12.46 15.8c-1.827 2.162-1.827 2.162-1.54 5.2 1.398 2.45 1.398 2.45 3.281 5.07l2.051 2.965 2.168 3.09q2.112 3.033 4.219 6.07l1.904 2.72C550 980 550 980 550 981c-3.18.53-4.951.814-8 0-2.93-2.779-4.905-6.067-7-9.5l-1.77-2.746A362 362 0 0 1 529 962c-4.837 3.254-4.837 3.254-6.805 8.55l-.07 3.763-.117 3.8L522 981h-7z" fill="#030303"/><path d="M572 937h29v6h-22v13h18v6h-18v13h22v6h-29z" fill="#040303"/><path d="m496 832 1.938 9.188.552 2.619A923 923 0 0 1 501 856c-2.962-.613-4.38-1.254-7-3l5 7-1 2-3-1 1.496.848c3.684 2.305 5.27 3.334 6.504 7.652 0 3.5 0 3.5-.687 6.188L502 878l1.938 1.625c3.364 3.874 2.368 8.452 2.062 13.375-3 0-3 0-6-2 .557-3.344 1.352-6.033 3-9-2.784 1.392-2.979 3.156-4 6-5.857-2.523-9.295-7.635-12.937-12.687-1.732-5.4-1.308-10.696-1.063-16.313l.059-3.277c.327-8.189 2.236-15.383 5.941-22.723 2-1 2-1 5-1" fill="#E4E4E4"/><path d="M619 937h8l9 17h3l1.934-3.465 2.504-4.472 1.275-2.288 1.22-2.177 1.127-2.016C648 938 648 938 649 937q3.5-.062 7 0c-1.547 5.733-4.442 10.33-7.562 15.313l-1.538 2.494c-3.727 6.02-3.727 6.02-4.9 7.193a67 67 0 0 0-.316 4.254l-.127 2.588-.12 2.72-.13 2.733q-.16 3.353-.307 6.705h-7c.03-1.831.03-1.831.063-3.7-.045-10.218-.892-16.83-6.918-25.277-3.328-4.691-5.68-9.841-8.145-15.023" fill="#040404"/><path d="m573 853 3 1-1 2 4-1v2c2.905 2.042 4.401 3 8 3 1.154 9.852-2.265 16.24-8.262 23.883-6.518 7.563-6.518 7.563-10.738 8.117l-.586-1.863-.789-2.45-.773-2.425c-.84-2.49-.84-2.49-2.852-5.262l8-1v-3l-5-1 1-4h5l-5-2 1-2.375c1.119-2.468 1.119-2.468 1-4.625 1.5-1.625 1.5-1.625 3-3h-2c1.875-4.875 1.875-4.875 3-6" fill="#F9F9F9"/><path d="M572 818c1.666 3.331-.24 6.615-1.312 10-1.932 6.3-3.553 12.5-4.688 19h3c1.924-8.286 3.46-16.636 5-25h1c.55 7.633-.6 13.667-3.043 20.895-1.254 4.068-1.67 7.868-1.957 12.105l2 1-2 3 4-1c-1.375 2-1.375 2-3 4h-2v2l2 1-4 4 2.438.375L572 870l1 2h-6l-1 3h5c.563 1.938.563 1.938 1 4-1.811 1.811-4.613 1.382-7.062 1.563l-3.348.253L559 881l.496-2.074c.568-3.3.6-6.392.567-9.739l-.028-3.519L560 863c-3.348 5.245-4.945 9.879-6 16l-2-1c.108-5.642 1.394-9 4.375-13.812 4.141-6.762 5.848-13.016 7.29-20.754 3.923-21.022 3.923-21.022 8.335-25.434" fill="#090909"/><path d="M486 864a184 184 0 0 1 8.063 1.938l2.298.591q2.821.729 5.639 1.471c1.086 4.68 1.086 4.68.313 7.563L502 878l1.938 1.625c3.364 3.874 2.368 8.452 2.062 13.375-3 0-3 0-6-2 .557-3.344 1.352-6.033 3-9-2.784 1.392-2.979 3.156-4 6-5.915-2.548-9.569-7.738-12.937-13.062C484.8 871.45 484.71 868.68 485 865z" fill="#FAFBFA"/><path d="M523.5 791.625c5.244.057 9.36 2.272 13.5 5.375 2.657 2.921 3.017 3.519 2.875 7.625C539 808 539 808 536 810c-4.274.688-9.066 1.295-12.797-1.203-4.32-5.031-4.444-9.406-4.203-15.797 1-1 1-1 4.5-1.375" fill="#FAF9F9"/><path d="m561 883 4 1 2 10q-2.687.079-5.375.125l-3.023.07C556 894 556 894 554 892c0-3.408 1.371-4.371 3.813-6.812z" fill="#FAFAFA"/><path d="M510 896c5.006.5 9.782 1.376 14.688 2.5 6.76 1.498 13.404 2.167 20.312 2.5-1.594 1.913-2.508 2.901-4.988 3.398-10.584-.106-20.809-2.06-30.012-7.398z" fill="#878888"/><path d="M574 820c1.578 3.157.406 6.226-.25 9.563l-.417 2.18A96 96 0 0 1 569 847h-3c2.654-21.654 2.654-21.654 8-27" fill="#F4F5F4"/><path d="m573 853 3 1-1 2 4-1v2a105 105 0 0 0 5 4c-4.982 1.916-9.727 2.555-15 3 0-2 0-2 1.5-3.625L572 859h-2c1.875-4.875 1.875-4.875 3-6" fill="#A2A2A2"/><path d="M526 824c1.36 4.078.145 7.177-.937 11.188l-.592 2.271A879 879 0 0 1 523 843l-2-1-2 3a268 268 0 0 1-.125-4.25l-.07-2.39c.212-2.567.908-4.152 2.195-6.36l1 2 .367-1.934.508-2.504.492-2.496L524 825z" fill="#131313"/><path d="M572 818c1.684 3.369-.287 6.763-1.375 10.188-1.667 5.28-2.997 10.302-3.625 15.812l-3-1c2.637-19.637 2.637-19.637 8-25" fill="#181818"/><path d="M510 872c2.2.418 4.386.91 6.563 1.438l3.628.87L523 875v3q-2.437-.212-4.875-.437l-2.742-.247C513 877 513 877 511 876l-1 5-2-1c.875-6.875.875-6.875 2-8" fill="#101011"/><path d="M572 834c-.549 4.571-1.417 8.674-3 13h-3c.087-1.605.196-3.21.313-4.812l.175-2.708c.687-3.33 1.91-5.48 5.512-5.48" fill="#E9E9EA"/><path d="M498 821c2.282 3.422 2.886 6.541 3.625 10.5l.406 2.05c.554 2.867.969 5.523.969 8.45h-3q-.506-3.562-1-7.125c-.095-.665-.19-1.33-.29-2.016-.546-3.985-.81-7.838-.71-11.859" fill="#202021"/><path d="m559 860 2 1-1.023 1.652c-3.214 5.434-4.892 10.131-5.977 16.348l-2-1c.271-7.324 2.962-11.973 7-18" fill="#171617"/><path d="M523 821h3l-4 17h-1c-.369-11.522-.369-11.522 2-17" fill="#8C8D8D"/><path d="m573 853 3 1-1 2 4-1c-1.974 2.523-2.967 2.993-6.187 3.688L570 859c1.875-4.875 1.875-4.875 3-6" fill="#B1B2B2"/></svg>